<svg width="326" height="133" fill="none" xmlns="http://www.w3.org/2000/svg"><path fill-rule="evenodd" clip-rule="evenodd" d="M163.458 12.044L167 15.586 165.586 17l-3.542-3.542A7.465 7.465 0 01157.5 15a7.5 7.5 0 117.5-7.5c0 1.643-.542 3.24-1.542 4.544zM157.5 2a5.506 5.506 0 00-5.5 5.5 5.506 5.506 0 005.5 5.5c3.032 0 5.5-2.468 5.5-5.5 0-3.033-2.468-5.5-5.5-5.5z" fill="#fff"/><path d="M20.83 92.965l2.089 2.099L5.13 112.947l17.847 17.939-2.09 2.099L.952 112.947 20.83 92.965z" fill="#fff"/><path fill-rule="evenodd" clip-rule="evenodd" d="M306 101h17c1.65 0 3 1.35 3 3v17c0 1.65-1.35 3-3 3h-17c-1.65 0-3-1.35-3-3v-17c0-1.65 1.35-3 3-3zm18 3c0-.542-.458-1-1-1h-17c-.542 0-1 .458-1 1v17c0 .542.458 1 1 1h17c.542 0 1-.458 1-1v-17z" fill="#C5C5C5"/></svg>